<?xml version="1.0" encoding="UTF-8" standalone="no"?>
<!DOCTYPE svg PUBLIC "-//W3C//DTD SVG 1.1//EN"
 "http://www.w3.org/Graphics/SVG/1.1/DTD/svg11.dtd">
<!-- Generated by graphviz version 2.40.1 (20161225.0304)
 -->
<!-- Title: dependencies Pages: 1 -->
<svg width="3293pt" height="284pt"
 viewBox="0.00 0.00 3293.00 284.00" xmlns="http://www.w3.org/2000/svg" xmlns:xlink="http://www.w3.org/1999/xlink">
<g id="graph0" class="graph" transform="scale(1 1) rotate(0) translate(4 280)">
<title>dependencies</title>
<polygon fill="#ffffff" stroke="transparent" points="-4,4 -4,-280 3289,-280 3289,4 -4,4"/>
<text text-anchor="start" x="1621.5091" y="-42.4" font-family="sans-serif" font-weight="bold" font-size="14.00" fill="#000000">Legend</text>
<polygon fill="#ffffb3" stroke="transparent" points="1408.5,-10 1408.5,-30 1428.5,-30 1428.5,-10 1408.5,-10"/>
<text text-anchor="start" x="1432.129" y="-15.4" font-family="sans-serif" font-size="14.00" fill="#000000"> &#160;Declarations</text>
<polygon fill="#8dd3c7" stroke="transparent" points="1521.5,-10 1521.5,-30 1541.5,-30 1541.5,-10 1521.5,-10"/>
<text text-anchor="start" x="1545.2251" y="-15.4" font-family="sans-serif" font-size="14.00" fill="#000000"> &#160;Module</text>
<polygon fill="#80b1d3" stroke="transparent" points="1607.5,-10 1607.5,-30 1627.5,-30 1627.5,-10 1607.5,-10"/>
<text text-anchor="start" x="1631.2812" y="-15.4" font-family="sans-serif" font-size="14.00" fill="#000000"> &#160;Bootstrap</text>
<polygon fill="#fdb462" stroke="transparent" points="1704.5,-10 1704.5,-30 1724.5,-30 1724.5,-10 1704.5,-10"/>
<text text-anchor="start" x="1728.1732" y="-15.4" font-family="sans-serif" font-size="14.00" fill="#000000"> &#160;Providers</text>
<polygon fill="#fb8072" stroke="transparent" points="1800.5,-10 1800.5,-30 1820.5,-30 1820.5,-10 1800.5,-10"/>
<text text-anchor="start" x="1824.2258" y="-15.4" font-family="sans-serif" font-size="14.00" fill="#000000"> &#160;Exports</text>
<g id="clust1" class="cluster">
<title>cluster_AppModule</title>
<polygon fill="none" stroke="#000000" stroke-dasharray="1,5" points="8,-70 8,-268 3277,-268 3277,-70 8,-70"/>
</g>
<g id="clust2" class="cluster">
<title>cluster_AppModule_declarations</title>
<polygon fill="none" stroke="#000000" points="1385,-78 1385,-130 3269,-130 3269,-78 1385,-78"/>
</g>
<g id="clust16" class="cluster">
<title>cluster_AppModule_imports</title>
<polygon fill="none" stroke="#000000" points="1140,-78 1140,-130 1377,-130 1377,-78 1140,-78"/>
</g>
<g id="clust18" class="cluster">
<title>cluster_AppModule_bootstrap</title>
<polygon fill="none" stroke="#000000" points="1623,-208 1623,-260 1747,-260 1747,-208 1623,-208"/>
</g>
<g id="clust19" class="cluster">
<title>cluster_AppModule_providers</title>
<polygon fill="none" stroke="#000000" points="16,-78 16,-130 1132,-130 1132,-78 16,-78"/>
</g>
<!-- AppComponent -->
<g id="node1" class="node">
<title>AppComponent</title>
<polygon fill="#ffffb3" stroke="#000000" points="3260.9399,-122 3155.0601,-122 3155.0601,-86 3260.9399,-86 3260.9399,-122"/>
<text text-anchor="middle" x="3208" y="-99.8" font-family="Times,serif" font-size="14.00" fill="#000000">AppComponent</text>
</g>
<!-- AppModule -->
<g id="node14" class="node">
<title>AppModule</title>
<polygon fill="#8dd3c7" stroke="#000000" points="1726.6571,-187 1723.6571,-191 1702.6571,-191 1699.6571,-187 1643.3429,-187 1643.3429,-151 1726.6571,-151 1726.6571,-187"/>
<text text-anchor="middle" x="1685" y="-164.8" font-family="Times,serif" font-size="14.00" fill="#000000">AppModule</text>
</g>
<!-- AppComponent&#45;&gt;AppModule -->
<g id="edge1" class="edge">
<title>AppComponent&#45;&gt;AppModule</title>
<path fill="none" stroke="#000000" d="M3208,-122.1532C3208,-145.7566 3208,-184 3208,-184 3208,-184 1736.924,-184 1736.924,-184"/>
<polygon fill="#000000" stroke="#000000" points="1736.924,-180.5001 1726.924,-184 1736.924,-187.5001 1736.924,-180.5001"/>
</g>
<!-- AboutComponent -->
<g id="node2" class="node">
<title>AboutComponent</title>
<polygon fill="#ffffb3" stroke="#000000" points="3137.3301,-122 3020.6699,-122 3020.6699,-86 3137.3301,-86 3137.3301,-122"/>
<text text-anchor="middle" x="3079" y="-99.8" font-family="Times,serif" font-size="14.00" fill="#000000">AboutComponent</text>
</g>
<!-- AboutComponent&#45;&gt;AppModule -->
<g id="edge2" class="edge">
<title>AboutComponent&#45;&gt;AppModule</title>
<path fill="none" stroke="#000000" d="M3079,-122.2479C3079,-145.0179 3079,-181 3079,-181 3079,-181 1736.7197,-181 1736.7197,-181"/>
<polygon fill="#000000" stroke="#000000" points="1736.7197,-177.5001 1726.7197,-181 1736.7196,-184.5001 1736.7197,-177.5001"/>
</g>
<!-- RegisterComponent -->
<g id="node3" class="node">
<title>RegisterComponent</title>
<polygon fill="#ffffb3" stroke="#000000" points="3002.9846,-122 2875.0154,-122 2875.0154,-86 3002.9846,-86 3002.9846,-122"/>
<text text-anchor="middle" x="2939" y="-99.8" font-family="Times,serif" font-size="14.00" fill="#000000">RegisterComponent</text>
</g>
<!-- RegisterComponent&#45;&gt;AppModule -->
<g id="edge3" class="edge">
<title>RegisterComponent&#45;&gt;AppModule</title>
<path fill="none" stroke="#000000" d="M2939,-122.2921C2939,-144.2057 2939,-178 2939,-178 2939,-178 1736.7228,-178 1736.7228,-178"/>
<polygon fill="#000000" stroke="#000000" points="1736.7229,-174.5001 1726.7228,-178 1736.7228,-181.5001 1736.7229,-174.5001"/>
</g>
<!-- LoginComponent -->
<g id="node4" class="node">
<title>LoginComponent</title>
<polygon fill="#ffffb3" stroke="#000000" points="2857.2758,-122 2742.7242,-122 2742.7242,-86 2857.2758,-86 2857.2758,-122"/>
<text text-anchor="middle" x="2800" y="-99.8" font-family="Times,serif" font-size="14.00" fill="#000000">LoginComponent</text>
</g>
<!-- LoginComponent&#45;&gt;AppModule -->
<g id="edge4" class="edge">
<title>LoginComponent&#45;&gt;AppModule</title>
<path fill="none" stroke="#000000" d="M2800,-122.0267C2800,-142.7672 2800,-174 2800,-174 2800,-174 1736.6743,-174 1736.6743,-174"/>
<polygon fill="#000000" stroke="#000000" points="1736.6744,-170.5001 1726.6743,-174 1736.6743,-177.5001 1736.6744,-170.5001"/>
</g>
<!-- LogoutComponent -->
<g id="node5" class="node">
<title>LogoutComponent</title>
<polygon fill="#ffffb3" stroke="#000000" points="2724.7758,-122 2603.2242,-122 2603.2242,-86 2724.7758,-86 2724.7758,-122"/>
<text text-anchor="middle" x="2664" y="-99.8" font-family="Times,serif" font-size="14.00" fill="#000000">LogoutComponent</text>
</g>
<!-- LogoutComponent&#45;&gt;AppModule -->
<g id="edge5" class="edge">
<title>LogoutComponent&#45;&gt;AppModule</title>
<path fill="none" stroke="#000000" d="M2664,-122.308C2664,-142.1455 2664,-171 2664,-171 2664,-171 1736.7532,-171 1736.7532,-171"/>
<polygon fill="#000000" stroke="#000000" points="1736.7533,-167.5001 1726.7532,-171 1736.7532,-174.5001 1736.7533,-167.5001"/>
</g>
<!-- AccountComponent -->
<g id="node6" class="node">
<title>AccountComponent</title>
<polygon fill="#ffffb3" stroke="#000000" points="2585.259,-122 2456.741,-122 2456.741,-86 2585.259,-86 2585.259,-122"/>
<text text-anchor="middle" x="2521" y="-99.8" font-family="Times,serif" font-size="14.00" fill="#000000">AccountComponent</text>
</g>
<!-- AccountComponent&#45;&gt;AppModule -->
<g id="edge6" class="edge">
<title>AccountComponent&#45;&gt;AppModule</title>
<path fill="none" stroke="#000000" d="M2521,-122.1686C2521,-141.0898 2521,-168 2521,-168 2521,-168 1736.7434,-168 1736.7434,-168"/>
<polygon fill="#000000" stroke="#000000" points="1736.7434,-164.5001 1726.7434,-168 1736.7434,-171.5001 1736.7434,-164.5001"/>
</g>
<!-- AdminComponent -->
<g id="node7" class="node">
<title>AdminComponent</title>
<polygon fill="#ffffb3" stroke="#000000" points="2439.2204,-122 2318.7796,-122 2318.7796,-86 2439.2204,-86 2439.2204,-122"/>
<text text-anchor="middle" x="2379" y="-99.8" font-family="Times,serif" font-size="14.00" fill="#000000">AdminComponent</text>
</g>
<!-- AdminComponent&#45;&gt;AppModule -->
<g id="edge7" class="edge">
<title>AdminComponent&#45;&gt;AppModule</title>
<path fill="none" stroke="#000000" d="M2379,-122.302C2379,-140.2699 2379,-165 2379,-165 2379,-165 1736.8499,-165 1736.8499,-165"/>
<polygon fill="#000000" stroke="#000000" points="1736.85,-161.5001 1726.8499,-165 1736.8499,-168.5001 1736.85,-161.5001"/>
</g>
<!-- NotFoundComponent -->
<g id="node8" class="node">
<title>NotFoundComponent</title>
<polygon fill="#ffffb3" stroke="#000000" points="2301.1122,-122 2162.8878,-122 2162.8878,-86 2301.1122,-86 2301.1122,-122"/>
<text text-anchor="middle" x="2232" y="-99.8" font-family="Times,serif" font-size="14.00" fill="#000000">NotFoundComponent</text>
</g>
<!-- NotFoundComponent&#45;&gt;AppModule -->
<g id="edge8" class="edge">
<title>NotFoundComponent&#45;&gt;AppModule</title>
<path fill="none" stroke="#000000" d="M2232,-122.0352C2232,-138.7344 2232,-161 2232,-161 2232,-161 1737.0139,-161 1737.0139,-161"/>
<polygon fill="#000000" stroke="#000000" points="1737.0139,-157.5001 1727.0139,-161 1737.0139,-164.5001 1737.0139,-157.5001"/>
</g>
<!-- HomeComponent -->
<g id="node9" class="node">
<title>HomeComponent</title>
<polygon fill="#ffffb3" stroke="#000000" points="2144.5451,-122 2029.4549,-122 2029.4549,-86 2144.5451,-86 2144.5451,-122"/>
<text text-anchor="middle" x="2087" y="-99.8" font-family="Times,serif" font-size="14.00" fill="#000000">HomeComponent</text>
</g>
<!-- HomeComponent&#45;&gt;AppModule -->
<g id="edge9" class="edge">
<title>HomeComponent&#45;&gt;AppModule</title>
<path fill="none" stroke="#000000" d="M2087,-122.2819C2087,-137.9478 2087,-158 2087,-158 2087,-158 1736.8834,-158 1736.8834,-158"/>
<polygon fill="#000000" stroke="#000000" points="1736.8834,-154.5001 1726.8834,-158 1736.8834,-161.5001 1736.8834,-154.5001"/>
</g>
<!-- CreateThreadComponent -->
<g id="node10" class="node">
<title>CreateThreadComponent</title>
<polygon fill="#ffffb3" stroke="#000000" points="2010.5072,-122 1853.4928,-122 1853.4928,-86 2010.5072,-86 2010.5072,-122"/>
<text text-anchor="middle" x="1932" y="-99.8" font-family="Times,serif" font-size="14.00" fill="#000000">CreateThreadComponent</text>
</g>
<!-- CreateThreadComponent&#45;&gt;AppModule -->
<g id="edge10" class="edge">
<title>CreateThreadComponent&#45;&gt;AppModule</title>
<path fill="none" stroke="#000000" d="M1932,-122.1243C1932,-136.7832 1932,-155 1932,-155 1932,-155 1736.9002,-155 1736.9002,-155"/>
<polygon fill="#000000" stroke="#000000" points="1736.9002,-151.5001 1726.9002,-155 1736.9001,-158.5001 1736.9002,-151.5001"/>
</g>
<!-- ViewThreadComponent -->
<g id="node11" class="node">
<title>ViewThreadComponent</title>
<polygon fill="#ffffb3" stroke="#000000" points="1835.7935,-122 1684.2065,-122 1684.2065,-86 1835.7935,-86 1835.7935,-122"/>
<text text-anchor="middle" x="1760" y="-99.8" font-family="Times,serif" font-size="14.00" fill="#000000">ViewThreadComponent</text>
</g>
<!-- ViewThreadComponent&#45;&gt;AppModule -->
<g id="edge11" class="edge">
<title>ViewThreadComponent&#45;&gt;AppModule</title>
<path fill="none" stroke="#000000" d="M1705.5908,-122.1061C1705.5908,-122.1061 1705.5908,-140.991 1705.5908,-140.991"/>
<polygon fill="#000000" stroke="#000000" points="1702.0909,-140.9909 1705.5908,-150.991 1709.0909,-140.991 1702.0909,-140.9909"/>
</g>
<!-- FilterThreadPipe -->
<g id="node12" class="node">
<title>FilterThreadPipe</title>
<polygon fill="#ffffb3" stroke="#000000" points="1666.3599,-122 1555.6401,-122 1555.6401,-86 1666.3599,-86 1666.3599,-122"/>
<text text-anchor="middle" x="1611" y="-99.8" font-family="Times,serif" font-size="14.00" fill="#000000">FilterThreadPipe</text>
</g>
<!-- FilterThreadPipe&#45;&gt;AppModule -->
<g id="edge12" class="edge">
<title>FilterThreadPipe&#45;&gt;AppModule</title>
<path fill="none" stroke="#000000" d="M1654.8009,-122.1061C1654.8009,-122.1061 1654.8009,-140.991 1654.8009,-140.991"/>
<polygon fill="#000000" stroke="#000000" points="1651.3009,-140.9909 1654.8009,-150.991 1658.3009,-140.991 1651.3009,-140.9909"/>
</g>
<!-- EditThreadComponent -->
<g id="node13" class="node">
<title>EditThreadComponent</title>
<polygon fill="#ffffb3" stroke="#000000" points="1537.3089,-122 1392.6911,-122 1392.6911,-86 1537.3089,-86 1537.3089,-122"/>
<text text-anchor="middle" x="1465" y="-99.8" font-family="Times,serif" font-size="14.00" fill="#000000">EditThreadComponent</text>
</g>
<!-- EditThreadComponent&#45;&gt;AppModule -->
<g id="edge13" class="edge">
<title>EditThreadComponent&#45;&gt;AppModule</title>
<path fill="none" stroke="#000000" d="M1465,-122.1243C1465,-136.7832 1465,-155 1465,-155 1465,-155 1633.1018,-155 1633.1018,-155"/>
<polygon fill="#000000" stroke="#000000" points="1633.1019,-158.5001 1643.1018,-155 1633.1018,-151.5001 1633.1019,-158.5001"/>
</g>
<!-- AppComponent  -->
<g id="node17" class="node">
<title>AppComponent </title>
<polygon fill="#80b1d3" stroke="#000000" points="1739.439,-252 1630.561,-252 1630.561,-216 1739.439,-216 1739.439,-252"/>
<text text-anchor="middle" x="1685" y="-229.8" font-family="Times,serif" font-size="14.00" fill="#000000">AppComponent </text>
</g>
<!-- AppModule&#45;&gt;AppComponent  -->
<g id="edge16" class="edge">
<title>AppModule&#45;&gt;AppComponent </title>
<path fill="none" stroke="#000000" stroke-dasharray="1,5" d="M1685,-187.1061C1685,-187.1061 1685,-205.991 1685,-205.991"/>
<polygon fill="#000000" stroke="#000000" points="1681.5001,-205.9909 1685,-215.991 1688.5001,-205.991 1681.5001,-205.9909"/>
</g>
<!-- RoutingModule -->
<g id="node15" class="node">
<title>RoutingModule</title>
<polygon fill="#8dd3c7" stroke="#000000" points="1369.1681,-122 1366.1681,-126 1345.1681,-126 1342.1681,-122 1264.8319,-122 1264.8319,-86 1369.1681,-86 1369.1681,-122"/>
<text text-anchor="middle" x="1317" y="-99.8" font-family="Times,serif" font-size="14.00" fill="#000000">RoutingModule</text>
</g>
<!-- RoutingModule&#45;&gt;AppModule -->
<g id="edge14" class="edge">
<title>RoutingModule&#45;&gt;AppModule</title>
<path fill="none" stroke="#000000" d="M1317,-122.2819C1317,-137.9478 1317,-158 1317,-158 1317,-158 1633.144,-158 1633.144,-158"/>
<polygon fill="#000000" stroke="#000000" points="1633.144,-161.5001 1643.144,-158 1633.144,-154.5001 1633.144,-161.5001"/>
</g>
<!-- SharedModule -->
<g id="node16" class="node">
<title>SharedModule</title>
<polygon fill="#8dd3c7" stroke="#000000" points="1246.4231,-122 1243.4231,-126 1222.4231,-126 1219.4231,-122 1147.5769,-122 1147.5769,-86 1246.4231,-86 1246.4231,-122"/>
<text text-anchor="middle" x="1197" y="-99.8" font-family="Times,serif" font-size="14.00" fill="#000000">SharedModule</text>
</g>
<!-- SharedModule&#45;&gt;AppModule -->
<g id="edge15" class="edge">
<title>SharedModule&#45;&gt;AppModule</title>
<path fill="none" stroke="#000000" d="M1197,-122.0352C1197,-138.7344 1197,-161 1197,-161 1197,-161 1632.971,-161 1632.971,-161"/>
<polygon fill="#000000" stroke="#000000" points="1632.9711,-164.5001 1642.971,-161 1632.971,-157.5001 1632.9711,-164.5001"/>
</g>
<!-- AuthService -->
<g id="node18" class="node">
<title>AuthService</title>
<ellipse fill="#fdb462" stroke="#000000" cx="1065" cy="-104" rx="59.1083" ry="18"/>
<text text-anchor="middle" x="1065" y="-99.8" font-family="Times,serif" font-size="14.00" fill="#000000">AuthService</text>
</g>
<!-- AuthService&#45;&gt;AppModule -->
<g id="edge17" class="edge">
<title>AuthService&#45;&gt;AppModule</title>
<path fill="none" stroke="#000000" d="M1065,-122.302C1065,-140.2699 1065,-165 1065,-165 1065,-165 1632.8723,-165 1632.8723,-165"/>
<polygon fill="#000000" stroke="#000000" points="1632.8724,-168.5001 1642.8723,-165 1632.8723,-161.5001 1632.8724,-168.5001"/>
</g>
<!-- AuthGuardLogin -->
<g id="node19" class="node">
<title>AuthGuardLogin</title>
<ellipse fill="#fdb462" stroke="#000000" cx="910" cy="-104" rx="77.5936" ry="18"/>
<text text-anchor="middle" x="910" y="-99.8" font-family="Times,serif" font-size="14.00" fill="#000000">AuthGuardLogin</text>
</g>
<!-- AuthGuardLogin&#45;&gt;AppModule -->
<g id="edge18" class="edge">
<title>AuthGuardLogin&#45;&gt;AppModule</title>
<path fill="none" stroke="#000000" d="M910,-122.1686C910,-141.0898 910,-168 910,-168 910,-168 1633.3326,-168 1633.3326,-168"/>
<polygon fill="#000000" stroke="#000000" points="1633.3327,-171.5001 1643.3326,-168 1633.3326,-164.5001 1633.3327,-171.5001"/>
</g>
<!-- AuthGuardAdmin -->
<g id="node20" class="node">
<title>AuthGuardAdmin</title>
<ellipse fill="#fdb462" stroke="#000000" cx="733" cy="-104" rx="81.1052" ry="18"/>
<text text-anchor="middle" x="733" y="-99.8" font-family="Times,serif" font-size="14.00" fill="#000000">AuthGuardAdmin</text>
</g>
<!-- AuthGuardAdmin&#45;&gt;AppModule -->
<g id="edge19" class="edge">
<title>AuthGuardAdmin&#45;&gt;AppModule</title>
<path fill="none" stroke="#000000" d="M733,-122.308C733,-142.1455 733,-171 733,-171 733,-171 1633.174,-171 1633.174,-171"/>
<polygon fill="#000000" stroke="#000000" points="1633.174,-174.5001 1643.174,-171 1633.174,-167.5001 1633.174,-174.5001"/>
</g>
<!-- UserService -->
<g id="node21" class="node">
<title>UserService</title>
<ellipse fill="#fdb462" stroke="#000000" cx="575" cy="-104" rx="58.4415" ry="18"/>
<text text-anchor="middle" x="575" y="-99.8" font-family="Times,serif" font-size="14.00" fill="#000000">UserService</text>
</g>
<!-- UserService&#45;&gt;AppModule -->
<g id="edge20" class="edge">
<title>UserService&#45;&gt;AppModule</title>
<path fill="none" stroke="#000000" d="M575,-122.0267C575,-142.7672 575,-174 575,-174 575,-174 1633.1779,-174 1633.1779,-174"/>
<polygon fill="#000000" stroke="#000000" points="1633.178,-177.5001 1643.1779,-174 1633.1779,-170.5001 1633.178,-177.5001"/>
</g>
<!-- ThreadService -->
<g id="node22" class="node">
<title>ThreadService</title>
<ellipse fill="#fdb462" stroke="#000000" cx="431" cy="-104" rx="67.1734" ry="18"/>
<text text-anchor="middle" x="431" y="-99.8" font-family="Times,serif" font-size="14.00" fill="#000000">ThreadService</text>
</g>
<!-- ThreadService&#45;&gt;AppModule -->
<g id="edge21" class="edge">
<title>ThreadService&#45;&gt;AppModule</title>
<path fill="none" stroke="#000000" d="M431,-122.2921C431,-144.2057 431,-178 431,-178 431,-178 1633.2772,-178 1633.2772,-178"/>
<polygon fill="#000000" stroke="#000000" points="1633.2772,-181.5001 1643.2772,-178 1633.2771,-174.5001 1633.2772,-181.5001"/>
</g>
<!-- MessageService -->
<g id="node23" class="node">
<title>MessageService</title>
<ellipse fill="#fdb462" stroke="#000000" cx="272" cy="-104" rx="73.5522" ry="18"/>
<text text-anchor="middle" x="272" y="-99.8" font-family="Times,serif" font-size="14.00" fill="#000000">MessageService</text>
</g>
<!-- MessageService&#45;&gt;AppModule -->
<g id="edge22" class="edge">
<title>MessageService&#45;&gt;AppModule</title>
<path fill="none" stroke="#000000" d="M272,-122.2479C272,-145.0179 272,-181 272,-181 272,-181 1633.0951,-181 1633.0951,-181"/>
<polygon fill="#000000" stroke="#000000" points="1633.0951,-184.5001 1643.0951,-181 1633.095,-177.5001 1633.0951,-184.5001"/>
</g>
<!-- TokenInterceptor -->
<g id="node24" class="node">
<title>TokenInterceptor</title>
<ellipse fill="#fdb462" stroke="#000000" cx="102" cy="-104" rx="78.1308" ry="18"/>
<text text-anchor="middle" x="102" y="-99.8" font-family="Times,serif" font-size="14.00" fill="#000000">TokenInterceptor</text>
</g>
<!-- TokenInterceptor&#45;&gt;AppModule -->
<g id="edge23" class="edge">
<title>TokenInterceptor&#45;&gt;AppModule</title>
<path fill="none" stroke="#000000" d="M102,-122.1532C102,-145.7566 102,-184 102,-184 102,-184 1633.0663,-184 1633.0663,-184"/>
<polygon fill="#000000" stroke="#000000" points="1633.0664,-187.5001 1643.0663,-184 1633.0663,-180.5001 1633.0664,-187.5001"/>
</g>
</g>
</svg>
