<?xml version="1.0" encoding="UTF-8" standalone="no"?>
<!DOCTYPE svg PUBLIC "-//W3C//DTD SVG 1.1//EN"
 "http://www.w3.org/Graphics/SVG/1.1/DTD/svg11.dtd">
<!-- Generated by graphviz version 2.40.1 (20161225.0304)
 -->
<!-- Title: dependencies Pages: 1 -->
<svg width="504pt" height="284pt"
 viewBox="0.00 0.00 504.00 284.00" xmlns="http://www.w3.org/2000/svg" xmlns:xlink="http://www.w3.org/1999/xlink">
<g id="graph0" class="graph" transform="scale(1 1) rotate(0) translate(4 280)">
<title>dependencies</title>
<polygon fill="#ffffff" stroke="transparent" points="-4,4 -4,-280 500,-280 500,4 -4,4"/>
<text text-anchor="start" x="227.0091" y="-42.4" font-family="sans-serif" font-weight="bold" font-size="14.00" fill="#000000">Legend</text>
<polygon fill="#ffffb3" stroke="transparent" points="14,-10 14,-30 34,-30 34,-10 14,-10"/>
<text text-anchor="start" x="37.629" y="-15.4" font-family="sans-serif" font-size="14.00" fill="#000000"> &#160;Declarations</text>
<polygon fill="#8dd3c7" stroke="transparent" points="127,-10 127,-30 147,-30 147,-10 127,-10"/>
<text text-anchor="start" x="150.7251" y="-15.4" font-family="sans-serif" font-size="14.00" fill="#000000"> &#160;Module</text>
<polygon fill="#80b1d3" stroke="transparent" points="213,-10 213,-30 233,-30 233,-10 213,-10"/>
<text text-anchor="start" x="236.7812" y="-15.4" font-family="sans-serif" font-size="14.00" fill="#000000"> &#160;Bootstrap</text>
<polygon fill="#fdb462" stroke="transparent" points="310,-10 310,-30 330,-30 330,-10 310,-10"/>
<text text-anchor="start" x="333.6732" y="-15.4" font-family="sans-serif" font-size="14.00" fill="#000000"> &#160;Providers</text>
<polygon fill="#fb8072" stroke="transparent" points="406,-10 406,-30 426,-30 426,-10 406,-10"/>
<text text-anchor="start" x="429.7258" y="-15.4" font-family="sans-serif" font-size="14.00" fill="#000000"> &#160;Exports</text>
<g id="clust1" class="cluster">
<title>cluster_SharedModule</title>
<polygon fill="none" stroke="#000000" stroke-dasharray="1,5" points="99,-70 99,-268 397,-268 397,-70 99,-70"/>
</g>
<g id="clust2" class="cluster">
<title>cluster_SharedModule_declarations</title>
<polygon fill="none" stroke="#000000" points="111,-78 111,-130 385,-130 385,-78 111,-78"/>
</g>
<g id="clust6" class="cluster">
<title>cluster_SharedModule_exports</title>
<polygon fill="none" stroke="#000000" points="107,-208 107,-260 389,-260 389,-208 107,-208"/>
</g>
<!-- ToastComponent -->
<g id="node1" class="node">
<title>ToastComponent</title>
<polygon fill="#ffffb3" stroke="#000000" points="377.4356,-122 264.5644,-122 264.5644,-86 377.4356,-86 377.4356,-122"/>
<text text-anchor="middle" x="321" y="-99.8" font-family="Times,serif" font-size="14.00" fill="#000000">ToastComponent</text>
</g>
<!-- SharedModule -->
<g id="node3" class="node">
<title>SharedModule</title>
<polygon fill="#8dd3c7" stroke="#000000" points="233.4231,-187 230.4231,-191 209.4231,-191 206.4231,-187 134.5769,-187 134.5769,-151 233.4231,-151 233.4231,-187"/>
<text text-anchor="middle" x="184" y="-164.8" font-family="Times,serif" font-size="14.00" fill="#000000">SharedModule</text>
</g>
<!-- ToastComponent&#45;&gt;SharedModule -->
<g id="edge1" class="edge">
<title>ToastComponent&#45;&gt;SharedModule</title>
<path fill="none" stroke="#000000" d="M339.8225,-122.0225C339.8225,-139.3734 339.8225,-163 339.8225,-163 339.8225,-163 243.3032,-163 243.3032,-163"/>
<polygon fill="#000000" stroke="#000000" points="243.3032,-159.5001 233.3032,-163 243.3032,-166.5001 243.3032,-159.5001"/>
</g>
<!-- LoadingComponent -->
<g id="node2" class="node">
<title>LoadingComponent</title>
<polygon fill="#ffffb3" stroke="#000000" points="246.9902,-122 119.0098,-122 119.0098,-86 246.9902,-86 246.9902,-122"/>
<text text-anchor="middle" x="183" y="-99.8" font-family="Times,serif" font-size="14.00" fill="#000000">LoadingComponent</text>
</g>
<!-- LoadingComponent&#45;&gt;SharedModule -->
<g id="edge2" class="edge">
<title>LoadingComponent&#45;&gt;SharedModule</title>
<path fill="none" stroke="#000000" d="M184,-122.1061C184,-122.1061 184,-140.991 184,-140.991"/>
<polygon fill="#000000" stroke="#000000" points="180.5001,-140.9909 184,-150.991 187.5001,-140.991 180.5001,-140.9909"/>
</g>
<!-- ToastComponent  -->
<g id="node4" class="node">
<title>ToastComponent </title>
<polygon fill="#fb8072" stroke="#000000" points="380.9348,-252 265.0652,-252 265.0652,-216 380.9348,-216 380.9348,-252"/>
<text text-anchor="middle" x="323" y="-229.8" font-family="Times,serif" font-size="14.00" fill="#000000">ToastComponent </text>
</g>
<!-- SharedModule&#45;&gt;ToastComponent  -->
<g id="edge3" class="edge">
<title>SharedModule&#45;&gt;ToastComponent </title>
<path fill="none" stroke="#000000" stroke-dasharray="5,2" d="M233.5377,-175C265.99,-175 302.4275,-175 302.4275,-175 302.4275,-175 302.4275,-205.9775 302.4275,-205.9775"/>
<polygon fill="#000000" stroke="#000000" points="298.9276,-205.9774 302.4275,-215.9775 305.9276,-205.9775 298.9276,-205.9774"/>
</g>
<!-- LoadingComponent  -->
<g id="node5" class="node">
<title>LoadingComponent </title>
<polygon fill="#fb8072" stroke="#000000" points="246.9911,-252 115.0089,-252 115.0089,-216 246.9911,-216 246.9911,-252"/>
<text text-anchor="middle" x="181" y="-229.8" font-family="Times,serif" font-size="14.00" fill="#000000">LoadingComponent </text>
</g>
<!-- SharedModule&#45;&gt;LoadingComponent  -->
<g id="edge4" class="edge">
<title>SharedModule&#45;&gt;LoadingComponent </title>
<path fill="none" stroke="#000000" stroke-dasharray="5,2" d="M184,-187.1061C184,-187.1061 184,-205.991 184,-205.991"/>
<polygon fill="#000000" stroke="#000000" points="180.5001,-205.9909 184,-215.991 187.5001,-205.991 180.5001,-205.9909"/>
</g>
</g>
</svg>
