<?xml version="1.0" encoding="UTF-8" standalone="no"?>
<!DOCTYPE svg PUBLIC "-//W3C//DTD SVG 1.1//EN"
 "http://www.w3.org/Graphics/SVG/1.1/DTD/svg11.dtd">
<!-- Generated by graphviz version 2.40.1 (20161225.0304)
 -->
<!-- Title: dependencies Pages: 1 -->
<svg width="4854pt" height="290pt"
 viewBox="0.00 0.00 4854.00 290.00" xmlns="http://www.w3.org/2000/svg" xmlns:xlink="http://www.w3.org/1999/xlink">
<g id="graph0" class="graph" transform="scale(1 1) rotate(0) translate(4 286)">
<title>dependencies</title>
<polygon fill="#ffffff" stroke="transparent" points="-4,4 -4,-286 4850,-286 4850,4 -4,4"/>
<text text-anchor="start" x="2402.0091" y="-42.4" font-family="sans-serif" font-weight="bold" font-size="14.00" fill="#000000">Legend</text>
<polygon fill="#ffffb3" stroke="transparent" points="2189,-10 2189,-30 2209,-30 2209,-10 2189,-10"/>
<text text-anchor="start" x="2212.629" y="-15.4" font-family="sans-serif" font-size="14.00" fill="#000000"> &#160;Declarations</text>
<polygon fill="#8dd3c7" stroke="transparent" points="2302,-10 2302,-30 2322,-30 2322,-10 2302,-10"/>
<text text-anchor="start" x="2325.7251" y="-15.4" font-family="sans-serif" font-size="14.00" fill="#000000"> &#160;Module</text>
<polygon fill="#80b1d3" stroke="transparent" points="2388,-10 2388,-30 2408,-30 2408,-10 2388,-10"/>
<text text-anchor="start" x="2411.7812" y="-15.4" font-family="sans-serif" font-size="14.00" fill="#000000"> &#160;Bootstrap</text>
<polygon fill="#fdb462" stroke="transparent" points="2485,-10 2485,-30 2505,-30 2505,-10 2485,-10"/>
<text text-anchor="start" x="2508.6732" y="-15.4" font-family="sans-serif" font-size="14.00" fill="#000000"> &#160;Providers</text>
<polygon fill="#fb8072" stroke="transparent" points="2581,-10 2581,-30 2601,-30 2601,-10 2581,-10"/>
<text text-anchor="start" x="2604.7258" y="-15.4" font-family="sans-serif" font-size="14.00" fill="#000000"> &#160;Exports</text>
<g id="clust1" class="cluster">
<title>cluster_AppModule</title>
<polygon fill="none" stroke="#000000" stroke-dasharray="1,5" points="8,-70 8,-274 4250,-274 4250,-70 8,-70"/>
</g>
<g id="clust2" class="cluster">
<title>cluster_AppModule_declarations</title>
<polygon fill="none" stroke="#000000" points="1674,-78 1674,-130 3997,-130 3997,-78 1674,-78"/>
</g>
<g id="clust19" class="cluster">
<title>cluster_AppModule_imports</title>
<polygon fill="none" stroke="#000000" points="4005,-78 4005,-130 4242,-130 4242,-78 4005,-78"/>
</g>
<g id="clust21" class="cluster">
<title>cluster_AppModule_bootstrap</title>
<polygon fill="none" stroke="#000000" points="2204,-214 2204,-266 2328,-266 2328,-214 2204,-214"/>
</g>
<g id="clust22" class="cluster">
<title>cluster_AppModule_providers</title>
<polygon fill="none" stroke="#000000" points="16,-78 16,-130 1666,-130 1666,-78 16,-78"/>
</g>
<g id="clust29" class="cluster">
<title>cluster_SharedModule</title>
<polygon fill="none" stroke="#000000" stroke-dasharray="1,5" points="4258,-138 4258,-206 4838,-206 4838,-138 4258,-138"/>
</g>
<g id="clust30" class="cluster">
<title>cluster_SharedModule_declarations</title>
<polygon fill="none" stroke="#000000" points="4556,-146 4556,-198 4830,-198 4830,-146 4556,-146"/>
</g>
<g id="clust34" class="cluster">
<title>cluster_SharedModule_exports</title>
<polygon fill="none" stroke="#000000" points="4266,-146 4266,-198 4548,-198 4548,-146 4266,-146"/>
</g>
<!-- AppComponent -->
<g id="node1" class="node">
<title>AppComponent</title>
<polygon fill="#ffffb3" stroke="#000000" points="3988.9399,-122 3883.0601,-122 3883.0601,-86 3988.9399,-86 3988.9399,-122"/>
<text text-anchor="middle" x="3936" y="-99.8" font-family="Times,serif" font-size="14.00" fill="#000000">AppComponent</text>
</g>
<!-- AppModule -->
<g id="node17" class="node">
<title>AppModule</title>
<polygon fill="#8dd3c7" stroke="#000000" points="2307.6571,-190 2304.6571,-194 2283.6571,-194 2280.6571,-190 2224.3429,-190 2224.3429,-154 2307.6571,-154 2307.6571,-190"/>
<text text-anchor="middle" x="2266" y="-167.8" font-family="Times,serif" font-size="14.00" fill="#000000">AppModule</text>
</g>
<!-- AppComponent&#45;&gt;AppModule -->
<g id="edge1" class="edge">
<title>AppComponent&#45;&gt;AppModule</title>
<path fill="none" stroke="#000000" d="M3936,-122.2479C3936,-145.0179 3936,-181 3936,-181 3936,-181 2317.6978,-181 2317.6978,-181"/>
<polygon fill="#000000" stroke="#000000" points="2317.6978,-177.5001 2307.6978,-181 2317.6977,-184.5001 2317.6978,-177.5001"/>
</g>
<!-- AboutComponent -->
<g id="node2" class="node">
<title>AboutComponent</title>
<polygon fill="#ffffb3" stroke="#000000" points="3865.3301,-122 3748.6699,-122 3748.6699,-86 3865.3301,-86 3865.3301,-122"/>
<text text-anchor="middle" x="3807" y="-99.8" font-family="Times,serif" font-size="14.00" fill="#000000">AboutComponent</text>
</g>
<!-- AboutComponent&#45;&gt;AppModule -->
<g id="edge2" class="edge">
<title>AboutComponent&#45;&gt;AppModule</title>
<path fill="none" stroke="#000000" d="M3807,-122.2921C3807,-144.2057 3807,-178 3807,-178 3807,-178 2318.0172,-178 2318.0172,-178"/>
<polygon fill="#000000" stroke="#000000" points="2318.0173,-174.5001 2308.0172,-178 2318.0172,-181.5001 2318.0173,-174.5001"/>
</g>
<!-- RegisterComponent -->
<g id="node3" class="node">
<title>RegisterComponent</title>
<polygon fill="#ffffb3" stroke="#000000" points="3730.9846,-122 3603.0154,-122 3603.0154,-86 3730.9846,-86 3730.9846,-122"/>
<text text-anchor="middle" x="3667" y="-99.8" font-family="Times,serif" font-size="14.00" fill="#000000">RegisterComponent</text>
</g>
<!-- RegisterComponent&#45;&gt;AppModule -->
<g id="edge3" class="edge">
<title>RegisterComponent&#45;&gt;AppModule</title>
<path fill="none" stroke="#000000" d="M3667,-122.1686C3667,-143.498 3667,-176 3667,-176 3667,-176 2317.9291,-176 2317.9291,-176"/>
<polygon fill="#000000" stroke="#000000" points="2317.9292,-172.5001 2307.9291,-176 2317.9291,-179.5001 2317.9292,-172.5001"/>
</g>
<!-- LoginComponent -->
<g id="node4" class="node">
<title>LoginComponent</title>
<polygon fill="#ffffb3" stroke="#000000" points="3585.2758,-122 3470.7242,-122 3470.7242,-86 3585.2758,-86 3585.2758,-122"/>
<text text-anchor="middle" x="3528" y="-99.8" font-family="Times,serif" font-size="14.00" fill="#000000">LoginComponent</text>
</g>
<!-- LoginComponent&#45;&gt;AppModule -->
<g id="edge4" class="edge">
<title>LoginComponent&#45;&gt;AppModule</title>
<path fill="none" stroke="#000000" d="M3528,-122.0267C3528,-142.7672 3528,-174 3528,-174 3528,-174 2317.989,-174 2317.989,-174"/>
<polygon fill="#000000" stroke="#000000" points="2317.989,-170.5001 2307.989,-174 2317.989,-177.5001 2317.989,-170.5001"/>
</g>
<!-- LogoutComponent -->
<g id="node5" class="node">
<title>LogoutComponent</title>
<polygon fill="#ffffb3" stroke="#000000" points="3452.7758,-122 3331.2242,-122 3331.2242,-86 3452.7758,-86 3452.7758,-122"/>
<text text-anchor="middle" x="3392" y="-99.8" font-family="Times,serif" font-size="14.00" fill="#000000">LogoutComponent</text>
</g>
<!-- LogoutComponent&#45;&gt;AppModule -->
<g id="edge5" class="edge">
<title>LogoutComponent&#45;&gt;AppModule</title>
<path fill="none" stroke="#000000" d="M3392,-122.308C3392,-142.1455 3392,-171 3392,-171 3392,-171 2317.7473,-171 2317.7473,-171"/>
<polygon fill="#000000" stroke="#000000" points="2317.7473,-167.5001 2307.7473,-171 2317.7473,-174.5001 2317.7473,-167.5001"/>
</g>
<!-- AccountComponent -->
<g id="node6" class="node">
<title>AccountComponent</title>
<polygon fill="#ffffb3" stroke="#000000" points="3313.259,-122 3184.741,-122 3184.741,-86 3313.259,-86 3313.259,-122"/>
<text text-anchor="middle" x="3249" y="-99.8" font-family="Times,serif" font-size="14.00" fill="#000000">AccountComponent</text>
</g>
<!-- AccountComponent&#45;&gt;AppModule -->
<g id="edge6" class="edge">
<title>AccountComponent&#45;&gt;AppModule</title>
<path fill="none" stroke="#000000" d="M3249,-122.1061C3249,-141.3391 3249,-169 3249,-169 3249,-169 2317.9238,-169 2317.9238,-169"/>
<polygon fill="#000000" stroke="#000000" points="2317.9239,-165.5001 2307.9238,-169 2317.9238,-172.5001 2317.9239,-165.5001"/>
</g>
<!-- AdminComponent -->
<g id="node7" class="node">
<title>AdminComponent</title>
<polygon fill="#ffffb3" stroke="#000000" points="3167.2204,-122 3046.7796,-122 3046.7796,-86 3167.2204,-86 3167.2204,-122"/>
<text text-anchor="middle" x="3107" y="-99.8" font-family="Times,serif" font-size="14.00" fill="#000000">AdminComponent</text>
</g>
<!-- AdminComponent&#45;&gt;AppModule -->
<g id="edge7" class="edge">
<title>AdminComponent&#45;&gt;AppModule</title>
<path fill="none" stroke="#000000" d="M3107,-122.2667C3107,-140.5552 3107,-166 3107,-166 3107,-166 2317.7053,-166 2317.7053,-166"/>
<polygon fill="#000000" stroke="#000000" points="2317.7054,-162.5001 2307.7053,-166 2317.7053,-169.5001 2317.7054,-162.5001"/>
</g>
<!-- NotFoundComponent -->
<g id="node8" class="node">
<title>NotFoundComponent</title>
<polygon fill="#ffffb3" stroke="#000000" points="3029.1122,-122 2890.8878,-122 2890.8878,-86 3029.1122,-86 3029.1122,-122"/>
<text text-anchor="middle" x="2960" y="-99.8" font-family="Times,serif" font-size="14.00" fill="#000000">NotFoundComponent</text>
</g>
<!-- NotFoundComponent&#45;&gt;AppModule -->
<g id="edge8" class="edge">
<title>NotFoundComponent&#45;&gt;AppModule</title>
<path fill="none" stroke="#000000" d="M2960,-122.002C2960,-139.6754 2960,-164 2960,-164 2960,-164 2317.8499,-164 2317.8499,-164"/>
<polygon fill="#000000" stroke="#000000" points="2317.85,-160.5001 2307.8499,-164 2317.8499,-167.5001 2317.85,-160.5001"/>
</g>
<!-- HomeComponent -->
<g id="node9" class="node">
<title>HomeComponent</title>
<polygon fill="#ffffb3" stroke="#000000" points="2872.5451,-122 2757.4549,-122 2757.4549,-86 2872.5451,-86 2872.5451,-122"/>
<text text-anchor="middle" x="2815" y="-99.8" font-family="Times,serif" font-size="14.00" fill="#000000">HomeComponent</text>
</g>
<!-- HomeComponent&#45;&gt;AppModule -->
<g id="edge9" class="edge">
<title>HomeComponent&#45;&gt;AppModule</title>
<path fill="none" stroke="#000000" d="M2815,-122.0336C2815,-139.0597 2815,-162 2815,-162 2815,-162 2317.7148,-162 2317.7148,-162"/>
<polygon fill="#000000" stroke="#000000" points="2317.7149,-158.5001 2307.7148,-162 2317.7148,-165.5001 2317.7149,-158.5001"/>
</g>
<!-- CreateThreadComponent -->
<g id="node10" class="node">
<title>CreateThreadComponent</title>
<polygon fill="#ffffb3" stroke="#000000" points="2738.5072,-122 2581.4928,-122 2581.4928,-86 2738.5072,-86 2738.5072,-122"/>
<text text-anchor="middle" x="2660" y="-99.8" font-family="Times,serif" font-size="14.00" fill="#000000">CreateThreadComponent</text>
</g>
<!-- CreateThreadComponent&#45;&gt;AppModule -->
<g id="edge10" class="edge">
<title>CreateThreadComponent&#45;&gt;AppModule</title>
<path fill="none" stroke="#000000" d="M2660,-122.0091C2660,-138.0494 2660,-159 2660,-159 2660,-159 2317.7919,-159 2317.7919,-159"/>
<polygon fill="#000000" stroke="#000000" points="2317.7919,-155.5001 2307.7919,-159 2317.7919,-162.5001 2317.7919,-155.5001"/>
</g>
<!-- ViewThreadComponent -->
<g id="node11" class="node">
<title>ViewThreadComponent</title>
<polygon fill="#ffffb3" stroke="#000000" points="2563.7935,-122 2412.2065,-122 2412.2065,-86 2563.7935,-86 2563.7935,-122"/>
<text text-anchor="middle" x="2488" y="-99.8" font-family="Times,serif" font-size="14.00" fill="#000000">ViewThreadComponent</text>
</g>
<!-- ViewThreadComponent&#45;&gt;AppModule -->
<g id="edge11" class="edge">
<title>ViewThreadComponent&#45;&gt;AppModule</title>
<path fill="none" stroke="#000000" d="M2488,-122.2396C2488,-137.5706 2488,-157 2488,-157 2488,-157 2317.7565,-157 2317.7565,-157"/>
<polygon fill="#000000" stroke="#000000" points="2317.7565,-153.5001 2307.7565,-157 2317.7565,-160.5001 2317.7565,-153.5001"/>
</g>
<!-- FilterThreadPipe -->
<g id="node12" class="node">
<title>FilterThreadPipe</title>
<polygon fill="#ffffb3" stroke="#000000" points="2394.3599,-122 2283.6401,-122 2283.6401,-86 2394.3599,-86 2394.3599,-122"/>
<text text-anchor="middle" x="2339" y="-99.8" font-family="Times,serif" font-size="14.00" fill="#000000">FilterThreadPipe</text>
</g>
<!-- FilterThreadPipe&#45;&gt;AppModule -->
<g id="edge12" class="edge">
<title>FilterThreadPipe&#45;&gt;AppModule</title>
<path fill="none" stroke="#000000" d="M2295.6992,-122.2228C2295.6992,-122.2228 2295.6992,-143.7269 2295.6992,-143.7269"/>
<polygon fill="#000000" stroke="#000000" points="2292.1992,-143.7269 2295.6992,-153.7269 2299.1992,-143.727 2292.1992,-143.7269"/>
</g>
<!-- EditThreadComponent -->
<g id="node13" class="node">
<title>EditThreadComponent</title>
<polygon fill="#ffffb3" stroke="#000000" points="2265.3089,-122 2120.6911,-122 2120.6911,-86 2265.3089,-86 2265.3089,-122"/>
<text text-anchor="middle" x="2193" y="-99.8" font-family="Times,serif" font-size="14.00" fill="#000000">EditThreadComponent</text>
</g>
<!-- EditThreadComponent&#45;&gt;AppModule -->
<g id="edge13" class="edge">
<title>EditThreadComponent&#45;&gt;AppModule</title>
<path fill="none" stroke="#000000" d="M2244.6631,-122.2228C2244.6631,-122.2228 2244.6631,-143.7269 2244.6631,-143.7269"/>
<polygon fill="#000000" stroke="#000000" points="2241.1631,-143.7269 2244.6631,-153.7269 2248.1631,-143.727 2241.1631,-143.7269"/>
</g>
<!-- UploadImageModal -->
<g id="node14" class="node">
<title>UploadImageModal</title>
<polygon fill="#ffffb3" stroke="#000000" points="2102.2423,-122 1973.7577,-122 1973.7577,-86 2102.2423,-86 2102.2423,-122"/>
<text text-anchor="middle" x="2038" y="-99.8" font-family="Times,serif" font-size="14.00" fill="#000000">UploadImageModal</text>
</g>
<!-- UploadImageModal&#45;&gt;AppModule -->
<g id="edge14" class="edge">
<title>UploadImageModal&#45;&gt;AppModule</title>
<path fill="none" stroke="#000000" d="M2038,-122.2396C2038,-137.5706 2038,-157 2038,-157 2038,-157 2214.1813,-157 2214.1813,-157"/>
<polygon fill="#000000" stroke="#000000" points="2214.1813,-160.5001 2224.1813,-157 2214.1813,-153.5001 2214.1813,-160.5001"/>
</g>
<!-- UploadVideoModal -->
<g id="node15" class="node">
<title>UploadVideoModal</title>
<polygon fill="#ffffb3" stroke="#000000" points="1955.9734,-122 1828.0266,-122 1828.0266,-86 1955.9734,-86 1955.9734,-122"/>
<text text-anchor="middle" x="1892" y="-99.8" font-family="Times,serif" font-size="14.00" fill="#000000">UploadVideoModal</text>
</g>
<!-- UploadVideoModal&#45;&gt;AppModule -->
<g id="edge15" class="edge">
<title>UploadVideoModal&#45;&gt;AppModule</title>
<path fill="none" stroke="#000000" d="M1892,-122.027C1892,-138.3976 1892,-160 1892,-160 1892,-160 2214.1861,-160 2214.1861,-160"/>
<polygon fill="#000000" stroke="#000000" points="2214.1861,-163.5001 2224.1861,-160 2214.1861,-156.5001 2214.1861,-163.5001"/>
</g>
<!-- UploadAudioModal -->
<g id="node16" class="node">
<title>UploadAudioModal</title>
<polygon fill="#ffffb3" stroke="#000000" points="1810.259,-122 1681.741,-122 1681.741,-86 1810.259,-86 1810.259,-122"/>
<text text-anchor="middle" x="1746" y="-99.8" font-family="Times,serif" font-size="14.00" fill="#000000">UploadAudioModal</text>
</g>
<!-- UploadAudioModal&#45;&gt;AppModule -->
<g id="edge16" class="edge">
<title>UploadAudioModal&#45;&gt;AppModule</title>
<path fill="none" stroke="#000000" d="M1746,-122.0336C1746,-139.0597 1746,-162 1746,-162 1746,-162 2214.3252,-162 2214.3252,-162"/>
<polygon fill="#000000" stroke="#000000" points="2214.3253,-165.5001 2224.3252,-162 2214.3252,-158.5001 2214.3253,-165.5001"/>
</g>
<!-- AppComponent  -->
<g id="node20" class="node">
<title>AppComponent </title>
<polygon fill="#80b1d3" stroke="#000000" points="2320.439,-258 2211.561,-258 2211.561,-222 2320.439,-222 2320.439,-258"/>
<text text-anchor="middle" x="2266" y="-235.8" font-family="Times,serif" font-size="14.00" fill="#000000">AppComponent </text>
</g>
<!-- AppModule&#45;&gt;AppComponent  -->
<g id="edge19" class="edge">
<title>AppModule&#45;&gt;AppComponent </title>
<path fill="none" stroke="#000000" stroke-dasharray="1,5" d="M2266,-190.2228C2266,-190.2228 2266,-211.7269 2266,-211.7269"/>
<polygon fill="#000000" stroke="#000000" points="2262.5001,-211.7269 2266,-221.7269 2269.5001,-211.727 2262.5001,-211.7269"/>
</g>
<!-- RoutingModule -->
<g id="node18" class="node">
<title>RoutingModule</title>
<polygon fill="#8dd3c7" stroke="#000000" points="4117.1681,-122 4114.1681,-126 4093.1681,-126 4090.1681,-122 4012.8319,-122 4012.8319,-86 4117.1681,-86 4117.1681,-122"/>
<text text-anchor="middle" x="4065" y="-99.8" font-family="Times,serif" font-size="14.00" fill="#000000">RoutingModule</text>
</g>
<!-- RoutingModule&#45;&gt;AppModule -->
<g id="edge17" class="edge">
<title>RoutingModule&#45;&gt;AppModule</title>
<path fill="none" stroke="#000000" d="M4065,-122.3228C4065,-145.6602 4065,-183 4065,-183 4065,-183 2317.8209,-183 2317.8209,-183"/>
<polygon fill="#000000" stroke="#000000" points="2317.8209,-179.5001 2307.8209,-183 2317.8209,-186.5001 2317.8209,-179.5001"/>
</g>
<!-- SharedModule -->
<g id="node19" class="node">
<title>SharedModule</title>
<polygon fill="#8dd3c7" stroke="#000000" points="4234.4231,-122 4231.4231,-126 4210.4231,-126 4207.4231,-122 4135.5769,-122 4135.5769,-86 4234.4231,-86 4234.4231,-122"/>
<text text-anchor="middle" x="4185" y="-99.8" font-family="Times,serif" font-size="14.00" fill="#000000">SharedModule</text>
</g>
<!-- SharedModule&#45;&gt;AppModule -->
<g id="edge18" class="edge">
<title>SharedModule&#45;&gt;AppModule</title>
<path fill="none" stroke="#000000" d="M4168.5963,-122.1985C4168.5963,-146.3563 4168.5963,-186 4168.5963,-186 4168.5963,-186 2317.9558,-186 2317.9558,-186"/>
<polygon fill="#000000" stroke="#000000" points="2317.9558,-182.5001 2307.9558,-186 2317.9558,-189.5001 2317.9558,-182.5001"/>
</g>
<!-- ToastComponent  -->
<g id="node33" class="node">
<title>ToastComponent </title>
<polygon fill="#fb8072" stroke="#000000" points="4539.9348,-190 4424.0652,-190 4424.0652,-154 4539.9348,-154 4539.9348,-190"/>
<text text-anchor="middle" x="4482" y="-167.8" font-family="Times,serif" font-size="14.00" fill="#000000">ToastComponent </text>
</g>
<!-- SharedModule&#45;&gt;ToastComponent  -->
<g id="edge32" class="edge">
<title>SharedModule&#45;&gt;ToastComponent </title>
<path fill="none" stroke="#000000" stroke-dasharray="5,2" d="M4234.3769,-113C4318.8301,-113 4482,-113 4482,-113 4482,-113 4482,-143.9775 4482,-143.9775"/>
<polygon fill="#000000" stroke="#000000" points="4478.5001,-143.9774 4482,-153.9775 4485.5001,-143.9775 4478.5001,-143.9774"/>
</g>
<!-- LoadingComponent  -->
<g id="node34" class="node">
<title>LoadingComponent </title>
<polygon fill="#fb8072" stroke="#000000" points="4405.9911,-190 4274.0089,-190 4274.0089,-154 4405.9911,-154 4405.9911,-190"/>
<text text-anchor="middle" x="4340" y="-167.8" font-family="Times,serif" font-size="14.00" fill="#000000">LoadingComponent </text>
</g>
<!-- SharedModule&#45;&gt;LoadingComponent  -->
<g id="edge33" class="edge">
<title>SharedModule&#45;&gt;LoadingComponent </title>
<path fill="none" stroke="#000000" stroke-dasharray="5,2" d="M4201.4037,-122.2267C4201.4037,-146.9318 4201.4037,-188 4201.4037,-188 4201.4037,-188 4263.9491,-188 4263.9491,-188"/>
<polygon fill="#000000" stroke="#000000" points="4263.9492,-191.5001 4273.9491,-188 4263.9491,-184.5001 4263.9492,-191.5001"/>
</g>
<!-- AuthService -->
<g id="node21" class="node">
<title>AuthService</title>
<ellipse fill="#fdb462" stroke="#000000" cx="1599" cy="-104" rx="59.1083" ry="18"/>
<text text-anchor="middle" x="1599" y="-99.8" font-family="Times,serif" font-size="14.00" fill="#000000">AuthService</text>
</g>
<!-- AuthService&#45;&gt;AppModule -->
<g id="edge20" class="edge">
<title>AuthService&#45;&gt;AppModule</title>
<path fill="none" stroke="#000000" d="M1599,-122.302C1599,-140.2699 1599,-165 1599,-165 1599,-165 2214.2762,-165 2214.2762,-165"/>
<polygon fill="#000000" stroke="#000000" points="2214.2762,-168.5001 2224.2762,-165 2214.2761,-161.5001 2214.2762,-168.5001"/>
</g>
<!-- AuthGuardLogin -->
<g id="node22" class="node">
<title>AuthGuardLogin</title>
<ellipse fill="#fdb462" stroke="#000000" cx="1444" cy="-104" rx="77.5936" ry="18"/>
<text text-anchor="middle" x="1444" y="-99.8" font-family="Times,serif" font-size="14.00" fill="#000000">AuthGuardLogin</text>
</g>
<!-- AuthGuardLogin&#45;&gt;AppModule -->
<g id="edge21" class="edge">
<title>AuthGuardLogin&#45;&gt;AppModule</title>
<path fill="none" stroke="#000000" d="M1444,-122.2222C1444,-140.8285 1444,-167 1444,-167 1444,-167 2214.1068,-167 2214.1068,-167"/>
<polygon fill="#000000" stroke="#000000" points="2214.1068,-170.5001 2224.1068,-167 2214.1068,-163.5001 2214.1068,-170.5001"/>
</g>
<!-- AuthGuardAdmin -->
<g id="node23" class="node">
<title>AuthGuardAdmin</title>
<ellipse fill="#fdb462" stroke="#000000" cx="1267" cy="-104" rx="81.1052" ry="18"/>
<text text-anchor="middle" x="1267" y="-99.8" font-family="Times,serif" font-size="14.00" fill="#000000">AuthGuardAdmin</text>
</g>
<!-- AuthGuardAdmin&#45;&gt;AppModule -->
<g id="edge22" class="edge">
<title>AuthGuardAdmin&#45;&gt;AppModule</title>
<path fill="none" stroke="#000000" d="M1267,-122.0348C1267,-141.5762 1267,-170 1267,-170 1267,-170 2214.0297,-170 2214.0297,-170"/>
<polygon fill="#000000" stroke="#000000" points="2214.0298,-173.5001 2224.0297,-170 2214.0297,-166.5001 2214.0298,-173.5001"/>
</g>
<!-- UserService -->
<g id="node24" class="node">
<title>UserService</title>
<ellipse fill="#fdb462" stroke="#000000" cx="1109" cy="-104" rx="58.4415" ry="18"/>
<text text-anchor="middle" x="1109" y="-99.8" font-family="Times,serif" font-size="14.00" fill="#000000">UserService</text>
</g>
<!-- UserService&#45;&gt;AppModule -->
<g id="edge23" class="edge">
<title>UserService&#45;&gt;AppModule</title>
<path fill="none" stroke="#000000" d="M1109,-122.2228C1109,-142.3652 1109,-172 1109,-172 1109,-172 2214.1382,-172 2214.1382,-172"/>
<polygon fill="#000000" stroke="#000000" points="2214.1383,-175.5001 2224.1382,-172 2214.1382,-168.5001 2214.1383,-175.5001"/>
</g>
<!-- ThreadService -->
<g id="node25" class="node">
<title>ThreadService</title>
<ellipse fill="#fdb462" stroke="#000000" cx="965" cy="-104" rx="67.1734" ry="18"/>
<text text-anchor="middle" x="965" y="-99.8" font-family="Times,serif" font-size="14.00" fill="#000000">ThreadService</text>
</g>
<!-- ThreadService&#45;&gt;AppModule -->
<g id="edge24" class="edge">
<title>ThreadService&#45;&gt;AppModule</title>
<path fill="none" stroke="#000000" d="M965,-122.2843C965,-143.3211 965,-175 965,-175 965,-175 2214.1869,-175 2214.1869,-175"/>
<polygon fill="#000000" stroke="#000000" points="2214.1869,-178.5001 2224.1869,-175 2214.1869,-171.5001 2214.1869,-178.5001"/>
</g>
<!-- MessageService -->
<g id="node26" class="node">
<title>MessageService</title>
<ellipse fill="#fdb462" stroke="#000000" cx="806" cy="-104" rx="73.5522" ry="18"/>
<text text-anchor="middle" x="806" y="-99.8" font-family="Times,serif" font-size="14.00" fill="#000000">MessageService</text>
</g>
<!-- MessageService&#45;&gt;AppModule -->
<g id="edge25" class="edge">
<title>MessageService&#45;&gt;AppModule</title>
<path fill="none" stroke="#000000" d="M806,-122.2921C806,-144.2057 806,-178 806,-178 806,-178 2214.269,-178 2214.269,-178"/>
<polygon fill="#000000" stroke="#000000" points="2214.2691,-181.5001 2224.269,-178 2214.269,-174.5001 2214.2691,-181.5001"/>
</g>
<!-- VisionAPIService -->
<g id="node27" class="node">
<title>VisionAPIService</title>
<ellipse fill="#fdb462" stroke="#000000" cx="633" cy="-104" rx="81.0956" ry="18"/>
<text text-anchor="middle" x="633" y="-99.8" font-family="Times,serif" font-size="14.00" fill="#000000">VisionAPIService</text>
</g>
<!-- VisionAPIService&#45;&gt;AppModule -->
<g id="edge26" class="edge">
<title>VisionAPIService&#45;&gt;AppModule</title>
<path fill="none" stroke="#000000" d="M633,-122.0109C633,-144.4852 633,-180 633,-180 633,-180 2213.9925,-180 2213.9925,-180"/>
<polygon fill="#000000" stroke="#000000" points="2213.9925,-183.5001 2223.9925,-180 2213.9924,-176.5001 2213.9925,-183.5001"/>
</g>
<!-- VideoAPIService -->
<g id="node28" class="node">
<title>VideoAPIService</title>
<ellipse fill="#fdb462" stroke="#000000" cx="455" cy="-104" rx="79.2903" ry="18"/>
<text text-anchor="middle" x="455" y="-99.8" font-family="Times,serif" font-size="14.00" fill="#000000">VideoAPIService</text>
</g>
<!-- VideoAPIService&#45;&gt;AppModule -->
<g id="edge27" class="edge">
<title>VideoAPIService&#45;&gt;AppModule</title>
<path fill="none" stroke="#000000" d="M455,-122.3228C455,-145.6602 455,-183 455,-183 455,-183 2214.3372,-183 2214.3372,-183"/>
<polygon fill="#000000" stroke="#000000" points="2214.3372,-186.5001 2224.3372,-183 2214.3371,-179.5001 2214.3372,-186.5001"/>
</g>
<!-- AudioAPIService -->
<g id="node29" class="node">
<title>AudioAPIService</title>
<ellipse fill="#fdb462" stroke="#000000" cx="278" cy="-104" rx="79.874" ry="18"/>
<text text-anchor="middle" x="278" y="-99.8" font-family="Times,serif" font-size="14.00" fill="#000000">AudioAPIService</text>
</g>
<!-- AudioAPIService&#45;&gt;AppModule -->
<g id="edge28" class="edge">
<title>AudioAPIService&#45;&gt;AppModule</title>
<path fill="none" stroke="#000000" d="M278,-122.3802C278,-146.2785 278,-185 278,-185 278,-185 2214.0191,-185 2214.0191,-185"/>
<polygon fill="#000000" stroke="#000000" points="2214.0191,-188.5001 2224.0191,-185 2214.0191,-181.5001 2214.0191,-188.5001"/>
</g>
<!-- TokenInterceptor -->
<g id="node30" class="node">
<title>TokenInterceptor</title>
<ellipse fill="#fdb462" stroke="#000000" cx="102" cy="-104" rx="78.1308" ry="18"/>
<text text-anchor="middle" x="102" y="-99.8" font-family="Times,serif" font-size="14.00" fill="#000000">TokenInterceptor</text>
</g>
<!-- TokenInterceptor&#45;&gt;AppModule -->
<g id="edge29" class="edge">
<title>TokenInterceptor&#45;&gt;AppModule</title>
<path fill="none" stroke="#000000" d="M102,-122.2267C102,-146.9318 102,-188 102,-188 102,-188 2214.2249,-188 2214.2249,-188"/>
<polygon fill="#000000" stroke="#000000" points="2214.2249,-191.5001 2224.2249,-188 2214.2248,-184.5001 2214.2249,-191.5001"/>
</g>
<!-- ToastComponent -->
<g id="node31" class="node">
<title>ToastComponent</title>
<polygon fill="#ffffb3" stroke="#000000" points="4822.4356,-190 4709.5644,-190 4709.5644,-154 4822.4356,-154 4822.4356,-190"/>
<text text-anchor="middle" x="4766" y="-167.8" font-family="Times,serif" font-size="14.00" fill="#000000">ToastComponent</text>
</g>
<!-- ToastComponent&#45;&gt;SharedModule -->
<g id="edge30" class="edge">
<title>ToastComponent&#45;&gt;SharedModule</title>
<path fill="none" stroke="#000000" d="M4766,-153.7521C4766,-130.9821 4766,-95 4766,-95 4766,-95 4244.5357,-95 4244.5357,-95"/>
<polygon fill="#000000" stroke="#000000" points="4244.5358,-91.5001 4234.5357,-95 4244.5357,-98.5001 4244.5358,-91.5001"/>
</g>
<!-- LoadingComponent -->
<g id="node32" class="node">
<title>LoadingComponent</title>
<polygon fill="#ffffb3" stroke="#000000" points="4691.9902,-190 4564.0098,-190 4564.0098,-154 4691.9902,-154 4691.9902,-190"/>
<text text-anchor="middle" x="4628" y="-167.8" font-family="Times,serif" font-size="14.00" fill="#000000">LoadingComponent</text>
</g>
<!-- LoadingComponent&#45;&gt;SharedModule -->
<g id="edge31" class="edge">
<title>LoadingComponent&#45;&gt;SharedModule</title>
<path fill="none" stroke="#000000" d="M4628,-153.7772C4628,-133.6348 4628,-104 4628,-104 4628,-104 4244.5282,-104 4244.5282,-104"/>
<polygon fill="#000000" stroke="#000000" points="4244.5283,-100.5001 4234.5282,-104 4244.5282,-107.5001 4244.5283,-100.5001"/>
</g>
</g>
</svg>
